<svg width="82" height="98" viewBox="0 0 82 98" fill="none" xmlns="http://www.w3.org/2000/svg">
<g filter="url(#filter0_dddd_426_5861)">
<mask id="mask0_426_5861" style="mask-type:luminance" maskUnits="userSpaceOnUse" x="0" y="0" width="82" height="80">
<path d="M82 40C82 17.9086 63.6437 0 41 0C18.3563 0 0 17.9086 0 40C0 62.0914 18.3563 80 41 80C63.6437 80 82 62.0914 82 40Z" fill="white"/>
</mask>
<g mask="url(#mask0_426_5861)">
<path d="M41.0002 102C59.1151 102 73.8002 91.2548 73.8002 78C73.8002 64.7452 59.1151 54 41.0002 54C22.8853 54 8.2002 64.7452 8.2002 78C8.2002 91.2548 22.8853 102 41.0002 102Z" fill="#8D8D9B"/>
<path opacity="0.9" d="M40.9996 48C50.0571 48 57.3996 40.8366 57.3996 32C57.3996 23.1634 50.0571 16 40.9996 16C31.9421 16 24.5996 23.1634 24.5996 32C24.5996 40.8366 31.9421 48 40.9996 48Z" fill="#8D8D9B"/>
</g>
</g>
<defs>
<filter id="filter0_dddd_426_5861" x="2.2002" y="15.5" width="77.5996" height="82.5" filterUnits="userSpaceOnUse" color-interpolation-filters="sRGB">
<feFlood flood-opacity="0" result="BackgroundImageFix"/>
<feColorMatrix in="SourceAlpha" type="matrix" values="0 0 0 0 0 0 0 0 0 0 0 0 0 0 0 0 0 0 127 0" result="hardAlpha"/>
<feMorphology radius="0.5" operator="dilate" in="SourceAlpha" result="effect1_dropShadow_426_5861"/>
<feOffset/>
<feColorMatrix type="matrix" values="0 0 0 0 0.00784314 0 0 0 0 0.00784314 0 0 0 0 0.0313726 0 0 0 0.06 0"/>
<feBlend mode="normal" in2="BackgroundImageFix" result="effect1_dropShadow_426_5861"/>
<feColorMatrix in="SourceAlpha" type="matrix" values="0 0 0 0 0 0 0 0 0 0 0 0 0 0 0 0 0 0 127 0" result="hardAlpha"/>
<feMorphology radius="1.5" operator="erode" in="SourceAlpha" result="effect2_dropShadow_426_5861"/>
<feOffset dy="3"/>
<feGaussianBlur stdDeviation="1.5"/>
<feColorMatrix type="matrix" values="0 0 0 0 0.00784314 0 0 0 0 0.00784314 0 0 0 0 0.0313726 0 0 0 0.12 0"/>
<feBlend mode="normal" in2="effect1_dropShadow_426_5861" result="effect2_dropShadow_426_5861"/>
<feColorMatrix in="SourceAlpha" type="matrix" values="0 0 0 0 0 0 0 0 0 0 0 0 0 0 0 0 0 0 127 0" result="hardAlpha"/>
<feMorphology radius="3" operator="erode" in="SourceAlpha" result="effect3_dropShadow_426_5861"/>
<feOffset dy="6"/>
<feGaussianBlur stdDeviation="3"/>
<feColorMatrix type="matrix" values="0 0 0 0 0.00784314 0 0 0 0 0.00784314 0 0 0 0 0.0313726 0 0 0 0.06 0"/>
<feBlend mode="normal" in2="effect2_dropShadow_426_5861" result="effect3_dropShadow_426_5861"/>
<feColorMatrix in="SourceAlpha" type="matrix" values="0 0 0 0 0 0 0 0 0 0 0 0 0 0 0 0 0 0 127 0" result="hardAlpha"/>
<feMorphology radius="6" operator="erode" in="SourceAlpha" result="effect4_dropShadow_426_5861"/>
<feOffset dy="12"/>
<feGaussianBlur stdDeviation="6"/>
<feColorMatrix type="matrix" values="0 0 0 0 0.00784314 0 0 0 0 0.00784314 0 0 0 0 0.0313726 0 0 0 0.04 0"/>
<feBlend mode="normal" in2="effect3_dropShadow_426_5861" result="effect4_dropShadow_426_5861"/>
<feBlend mode="normal" in="SourceGraphic" in2="effect4_dropShadow_426_5861" result="shape"/>
</filter>
</defs>
</svg>
