<svg width="60" height="60" viewBox="0 0 60 60" fill="none" xmlns="http://www.w3.org/2000/svg">
<path fill-rule="evenodd" clip-rule="evenodd" d="M12 12C12 8.68629 14.6863 6 18 6H42C45.3138 6 48 8.68629 48 12V48C49.6569 48 51 49.3431 51 51C51 52.6569 49.6569 54 48 54H39C37.3431 54 36 52.6569 36 51V45C36 43.3431 34.6569 42 33 42H27C25.3432 42 24 43.3431 24 45V51C24 52.6569 22.6568 54 21 54H12C10.3432 54 9 52.6569 9 51C9 49.3431 10.3432 48 12 48V12ZM21 15H27V21H21V15ZM27 27H21V33H27V27ZM33 15H39V21H33V15ZM39 27H33V33H39V27Z" fill="white"/>
</svg>
